<?xml version="1.0" ?>
<!-- Uploaded to: SVG Repo, www.svgrepo.com, Generator: SVG Repo Mixer Tools -->
<svg width="800px" height="800px" viewBox="0 0 117 117" version="1.1" xmlns="http://www.w3.org/2000/svg" xmlns:xlink="http://www.w3.org/1999/xlink">
<title/>
<desc/>
<defs/>
<g fill="none" fill-rule="evenodd" id="Page-1" stroke="none" stroke-width="1">
<g fill-rule="nonzero" id="exit">
<path d="M82.6,88.4 C83.4,89.2 84.4,89.6 85.5,89.6 C86.6,89.6 87.6,89.2 88.4,88.4 L115.4,61.4 C115.6,61.2 115.8,61 115.9,60.8 C115.9,60.8 116,60.7 116,60.6 C116.1,60.4 116.2,60.2 116.3,60.1 C116.3,60 116.3,59.9 116.4,59.9 C116.5,59.7 116.5,59.6 116.6,59.4 C116.7,59.1 116.7,58.9 116.7,58.6 C116.7,58.3 116.7,58.1 116.6,57.8 C116.6,57.6 116.5,57.4 116.4,57.3 C116.4,57.2 116.4,57.1 116.3,57.1 C116.2,56.9 116.1,56.7 116,56.5 C116,56.5 116,56.4 115.9,56.4 C115.8,56.2 115.6,56 115.4,55.8 L88.4,28.8 C86.8,27.2 84.2,27.2 82.6,28.8 C81,30.4 81,33 82.6,34.6 L102.6,54.6 L31.5,54.6 C29.2,54.6 27.4,56.4 27.4,58.7 C27.4,61 29.2,62.8 31.5,62.8 L102.6,62.8 L82.6,82.8 C81,84.2 81,86.8 82.6,88.4 Z" fill="#17AB13" id="Shape"/>
<path d="M4.5,116.5 L58.5,116.5 C60.8,116.5 62.6,114.7 62.6,112.4 L62.6,72.1 C62.6,69.8 60.8,68 58.5,68 C56.2,68 54.4,69.8 54.4,72.1 L54.4,108.3 L8.6,108.3 L8.6,8.6 L54.4,8.6 L54.4,44.8 C54.4,47.1 56.2,48.9 58.5,48.9 C60.8,48.9 62.6,47.1 62.6,44.8 L62.6,4.5 C62.6,2.2 60.8,0.4 58.5,0.4 L4.5,0.4 C2.2,0.4 0.4,2.2 0.4,4.5 L0.4,112.4 C0.5,114.7 2.3,116.5 4.5,116.5 Z" fill="#4A4A4A" id="Shape"/>
</g>
</g>
</svg>